<?xml version="1.0" encoding="UTF-8" standalone="no"?>
<!-- Created with Inkscape (http://www.inkscape.org/) -->

<svg
   xmlns:dc="http://purl.org/dc/elements/1.1/"
   xmlns:cc="http://creativecommons.org/ns#"
   xmlns:rdf="http://www.w3.org/1999/02/22-rdf-syntax-ns#"
   xmlns:svg="http://www.w3.org/2000/svg"
   xmlns="http://www.w3.org/2000/svg"
   xmlns:sodipodi="http://sodipodi.sourceforge.net/DTD/sodipodi-0.dtd"
   xmlns:inkscape="http://www.inkscape.org/namespaces/inkscape"
   width="744.09448819"
   height="1052.3622047"
   id="svg3052"
   version="1.1"
   inkscape:version="0.48.2 r9819"
   sodipodi:docname="New document 5">
  <defs
     id="defs3054" />
  <sodipodi:namedview
     id="base"
     pagecolor="#ffffff"
     bordercolor="#666666"
     borderopacity="1.0"
     inkscape:pageopacity="0.0"
     inkscape:pageshadow="2"
     inkscape:zoom="1.4"
     inkscape:cx="217.04535"
     inkscape:cy="896.33565"
     inkscape:document-units="px"
     inkscape:current-layer="layer1"
     showgrid="false"
     inkscape:window-width="932"
     inkscape:window-height="697"
     inkscape:window-x="193"
     inkscape:window-y="7"
     inkscape:window-maximized="0" />
  <metadata
     id="metadata3057">
    <rdf:RDF>
      <cc:Work
         rdf:about="">
        <dc:format>image/svg+xml</dc:format>
        <dc:type
           rdf:resource="http://purl.org/dc/dcmitype/StillImage" />
        <dc:title></dc:title>
      </cc:Work>
    </rdf:RDF>
  </metadata>
  <g
     inkscape:label="Layer 1"
     inkscape:groupmode="layer"
     id="layer1">
    <path
       style="fill:#0000ff"
       id="path3062"
       d="m 90.162697,23.250143 c -0.621294,8.156444 -0.633878,16.348809 -0.733744,24.524609 -0.159404,11.246906 -0.03311,22.494408 0.05459,33.741234 0.117313,5.885085 0.180898,11.782245 -0.699841,17.618278 -0.579793,3.841876 -0.758275,4.141906 -1.720126,7.864296 -1.075206,3.59805 -2.361492,7.14765 -4.32645,10.36863 -1.978434,3.24306 -4.540041,5.99411 -7.121699,8.7499 -5.4547,5.4623 -11.845481,8.47185 -18.752864,12.3342 -0.924442,0.51691 -1.907493,0.92645 -2.894298,1.31117 -2.24496,0.87523 -3.525166,1.10714 -5.843242,1.67138 -4.400721,0.92083 -8.917745,1.13049 -13.016103,-1.00385 -0.738969,-0.38484 -1.408804,-0.88993 -2.113206,-1.33489 -4.013315,-3.48992 -5.73896,-8.39566 -6.956461,-13.41191 -0.824866,-4.11147 -1.02219,-8.31098 -1.130993,-12.4922 -0.04767,-1.97113 -0.01973,-1.03391 -0.08089,-2.81177 0,0 11.671731,-5.94172 11.671731,-5.94172 l 0,0 c -0.07387,1.82451 -0.04455,0.86705 -0.08211,2.87254 -0.01074,4.13161 0.02198,8.28611 0.781003,12.3629 1.044733,4.71757 2.566359,9.38118 6.453644,12.54038 0.657208,0.38778 1.280956,0.83888 1.971624,1.16334 3.940402,1.85112 8.301259,1.38015 12.414415,0.46716 2.461519,-0.66691 3.261451,-0.79462 5.642836,-1.80969 0.946323,-0.40338 3.639494,-1.90684 2.777159,-1.34593 -20.184286,13.12887 -5.492845,3.04791 -4.788261,2.48903 0.933803,-0.74071 1.787129,-1.57757 2.680693,-2.36636 2.60499,-2.6528 5.210488,-5.3253 7.252393,-8.45774 2.038316,-3.12694 3.377581,-6.61483 4.52904,-10.14444 0.357966,-1.25858 0.769295,-2.50318 1.073899,-3.77573 1.693114,-7.07329 1.882163,-14.384591 1.882445,-21.620122 0.08715,-11.265365 0.214205,-22.531429 0.05459,-33.796864 -0.09804,-7.926154 -0.0965,-15.871845 -0.733743,-23.776887 0,0 11.753965,-5.988944 11.753965,-5.988944 z"
       inkscape:connector-curvature="0" />
  </g>
</svg>
